<?xml version="1.0" standalone="no"?>
<!DOCTYPE svg PUBLIC "-//W3C//DTD SVG 20010904//EN"
 "http://www.w3.org/TR/2001/REC-SVG-20010904/DTD/svg10.dtd">
<svg version="1.0" xmlns="http://www.w3.org/2000/svg"
 width="240.000000pt" height="240.000000pt" viewBox="0 0 240.000000 240.000000"
 preserveAspectRatio="xMidYMid meet">

<g transform="translate(0.000000,240.000000) scale(0.100000,-0.100000)"
fill="#000000" stroke="none">
<path d="M1090 1924 c-205 -24 -311 -46 -477 -100 l-113 -37 0 -261 c0 -293
12 -395 59 -526 89 -243 281 -416 559 -504 l82 -26 93 30 c50 17 107 39 126
49 l34 18 -36 22 c-42 26 -99 87 -123 133 -21 38 -24 166 -6 208 10 24 11 23
11 -12 1 -21 5 -38 10 -38 18 0 72 100 84 155 l12 58 11 -39 11 -39 8 49 c22
142 -18 248 -114 298 -50 26 -51 28 -23 28 17 0 43 -5 58 -11 22 -8 35 -6 60
7 29 16 42 17 118 6 47 -6 113 -22 146 -35 l60 -25 -18 30 c-31 54 -81 105
-139 144 -32 21 -84 61 -116 91 -113 103 -212 140 -352 130 -77 -6 -234 -45
-279 -69 -19 -11 -19 -12 -3 -16 13 -3 -2 -17 -55 -52 -40 -26 -86 -63 -103
-81 -31 -33 -29 -33 39 -4 l39 17 -65 -71 c-36 -39 -82 -102 -102 -141 -20
-38 -39 -70 -41 -70 -8 0 27 100 55 155 27 55 30 70 32 179 l3 119 53 18 c92
31 272 68 396 80 182 19 395 -7 606 -73 l75 -24 3 -214 c1 -119 -2 -246 -8
-285 -31 -200 -129 -357 -290 -465 -36 -24 -67 -45 -69 -47 -8 -6 40 -50 74
-69 l34 -18 55 38 c120 83 223 218 277 366 47 131 59 233 59 526 l0 260 -92
31 c-121 41 -231 69 -348 88 -97 15 -308 26 -370 19z m249 -332 c45 -22 50
-39 15 -48 -30 -8 -114 30 -122 54 -6 19 67 15 107 -6z"/>
</g>
</svg>
